<?xml version="1.0" encoding="utf-8"?>
<!-- Generator: Adobe Illustrator 16.0.3, SVG Export Plug-In . SVG Version: 6.00 Build 0)  -->
<!DOCTYPE svg PUBLIC "-//W3C//DTD SVG 1.1//EN" "http://www.w3.org/Graphics/SVG/1.1/DTD/svg11.dtd">
<svg version="1.1" id="Layer_1" xmlns="http://www.w3.org/2000/svg" xmlns:xlink="http://www.w3.org/1999/xlink" x="0px" y="0px"
	 width="216px" height="216px" viewBox="0 0 216 216" enable-background="new 0 0 216 216" xml:space="preserve">
<g id="Info">
	<g>
		<path fill="#0074BC" d="M178.376,37.625C158.943,18.193,133.471,8.479,108,8.479c-25.47,0-50.943,9.713-70.375,29.145
			c-38.864,38.865-38.864,101.881,0,140.745C57.057,197.809,82.53,207.521,108,207.521c25.471,0,50.943-9.713,70.376-29.151
			C217.238,139.506,217.238,76.489,178.376,37.625z M167.377,167.374c-15.859,15.86-36.947,24.597-59.377,24.597
			c-22.43,0-43.517-8.736-59.38-24.597c-32.739-32.741-32.739-86.013,0-118.749C64.48,32.765,85.57,24.03,108,24.03
			c22.43,0,43.521,8.735,59.381,24.595V48.62c15.855,15.86,24.594,36.95,24.594,59.377
			C191.975,130.43,183.236,151.514,167.377,167.374z"/>
		<path fill="#0074BC" d="M108.001,45.131c-8.033,0-14.545,6.512-14.545,14.542c0,8.03,6.512,14.542,14.545,14.542
			c8.03,0,14.542-6.512,14.542-14.542C122.543,51.643,116.031,45.131,108.001,45.131z"/>
		<rect x="94.716" y="95.204" fill="#0074BC" width="26.568" height="65.671"/>
	</g>
</g>
</svg>
